Classic BBC Horizon interview with Richard Feynman. It took place in 1981.

Video at 200kbps, and audio at 64kbps, it's perfect for viewing on the go, in a nice compressed tight mp4 file, and encoded for maximum compatibility on a baseline setting.

Feynman is inspirational in this video, definitely worth a watch, even as you just lay down in bed, allowing yourself to think and dream. Enjoy.


Source is BBC.Horizon.The.Pleasure.of.finding.Things.out.DivX.mp3.VHS.Hanke.avi


Format                                   : MPEG-4
Format profile                           : Base Media
Codec ID                                 : isom
File size                                : 108 MiB
Duration                                 : 49mn 38s
Overall bit rate                         : 303 Kbps
Writing application                      : Lavf54.6.100

Video
ID                                       : 1
Format                                   : AVC
Format/Info                              : Advanced Video Codec
Format profile                           : Baseline@L1.3
Format settings, CABAC                   : No
Format settings, ReFrames                : 3 frames
Codec ID                                 : avc1
Codec ID/Info                            : Advanced Video Coding
Duration                                 : 49mn 38s
Bit rate                                 : 200 Kbps
Width                                    : 320 pixels
Height                                   : 240 pixels
Display aspect ratio                     : 4:3
Frame rate mode                          : Constant
Frame rate                               : 25.000 fps
Color space                              : YUV
Chroma subsampling                       : 4:2:0
Bit depth                                : 8 bits
Scan type                                : Progressive
Bits/(Pixel*Frame)                       : 0.104
Stream size                              : 71.0 MiB (66%)
Writing library                          : x264 core 120 r2164 da19765
Encoding settings                        : cabac=0 / ref=3 / deblock=1:0:0 / analyse=0x1:0x111 / me=hex / subme=7 / psy=1 / psy_rd=1.00:0.00 / mixed_ref=1 / me_range=16 / chroma_me=1 / trellis=1 / 8x8dct=0 / cqm=0 / deadzone=21,11 / fast_pskip=1 / chroma_qp_offset=-2 / threads=6 / sliced_threads=0 / nr=0 / decimate=1 / interlaced=0 / bluray_compat=0 / constrained_intra=0 / bframes=0 / weightp=0 / keyint=250 / keyint_min=25 / scenecut=40 / intra_refresh=0 / rc_lookahead=40 / rc=2pass / mbtree=1 / bitrate=200 / ratetol=1.0 / qcomp=0.60 / qpmin=0 / qpmax=69 / qpstep=4 / cplxblur=20.0 / qblur=0.5 / ip_ratio=1.40 / aq=1:1.00

Audio
ID                                       : 2
Format                                   : AAC
Format/Info                              : Advanced Audio Codec
Format profile                           : LC
Codec ID                                 : 40
Duration                                 : 49mn 38s
Bit rate mode                            : Constant
Bit rate                                 : 96.0 Kbps
Channel(s)                               : 2 channels
Channel positions                        : Front: L R
Sampling rate                            : 48.0 KHz
Compression mode                         : Lossy
Stream size                              : 34.1 MiB (32%)
